<?xml version="1.0" encoding="iso-8859-1"?>
<!-- Generator: Adobe Illustrator 19.0.0, SVG Export Plug-In . SVG Version: 6.00 Build 0)  -->
<svg version="1.1" id="Layer_1" xmlns="http://www.w3.org/2000/svg" xmlns:xlink="http://www.w3.org/1999/xlink" x="0px" y="0px"
	 viewBox="0 0 504.869 504.869" style="enable-background:new 0 0 504.869 504.869;" xml:space="preserve">
<g>
	<path style="fill:#FFCD00;" d="M474.557,411.465c16.634-27.583,25.378-59.005,25.378-91.497
		c0-86.183-61.743-158.205-143.316-174.184c2.168,11.066,3.316,22.493,3.316,34.184c0,97.874-79.626,177.5-177.5,177.5
		c-11.574,0-23.006-1.13-34.183-3.31c15.982,81.57,88.002,143.31,174.183,143.31c32.494,0,63.916-8.744,91.497-25.378l90.938,30.312
		L474.557,411.465z"/>
	<path style="fill:#FFDA44;" d="M359.935,179.968c0-11.691-1.148-23.118-3.316-34.184C340.639,64.211,268.617,2.468,182.435,2.468
		c-97.874,0-177.5,79.626-177.5,177.5c0,32.492,8.744,63.914,25.378,91.497L0,362.401l90.938-30.312
		c17.757,10.709,37.112,18.128,57.314,22.068c11.177,2.18,22.609,3.31,34.183,3.31C280.309,357.468,359.935,277.842,359.935,179.968
		z"/>
</g>
<g>
</g>
<g>
</g>
<g>
</g>
<g>
</g>
<g>
</g>
<g>
</g>
<g>
</g>
<g>
</g>
<g>
</g>
<g>
</g>
<g>
</g>
<g>
</g>
<g>
</g>
<g>
</g>
<g>
</g>
</svg>
